<mxfile host="app.diagrams.net" modified="2021-06-15T09:08:58.578Z" agent="5.0 (Windows NT 10.0; Win64; x64) AppleWebKit/537.36 (KHTML, like Gecko) Chrome/91.0.4472.101 Safari/537.36 Edg/91.0.864.48" etag="CGRUlKObutnf0P5P_m3p" version="14.7.8" type="github">
  <diagram id="IDPObl6_pNINxw615g-I" name="Page-1">
    <mxGraphModel dx="1727" dy="4355" grid="1" gridSize="10" guides="1" tooltips="1" connect="1" arrows="1" fold="1" page="1" pageScale="1" pageWidth="1169" pageHeight="827" math="0" shadow="0">
      <root>
        <mxCell id="0" />
        <mxCell id="1" parent="0" />
        <mxCell id="4eGiwKimZnD7dt1MbMoV-1" value="" style="rounded=0;whiteSpace=wrap;html=1;" parent="1" vertex="1">
          <mxGeometry x="2470" y="-90" width="120" height="60" as="geometry" />
        </mxCell>
        <mxCell id="4eGiwKimZnD7dt1MbMoV-12" value="" style="edgeStyle=orthogonalEdgeStyle;rounded=0;orthogonalLoop=1;jettySize=auto;html=1;" parent="1" source="4eGiwKimZnD7dt1MbMoV-2" target="4eGiwKimZnD7dt1MbMoV-11" edge="1">
          <mxGeometry relative="1" as="geometry" />
        </mxCell>
        <mxCell id="4eGiwKimZnD7dt1MbMoV-2" value="Client.enter" style="rounded=1;whiteSpace=wrap;html=1;" parent="1" vertex="1">
          <mxGeometry x="340" y="-3290" width="120" height="60" as="geometry" />
        </mxCell>
        <mxCell id="4eGiwKimZnD7dt1MbMoV-14" value="" style="edgeStyle=orthogonalEdgeStyle;rounded=0;orthogonalLoop=1;jettySize=auto;html=1;" parent="1" source="4eGiwKimZnD7dt1MbMoV-11" target="4eGiwKimZnD7dt1MbMoV-13" edge="1">
          <mxGeometry relative="1" as="geometry" />
        </mxCell>
        <mxCell id="4eGiwKimZnD7dt1MbMoV-16" value="" style="edgeStyle=orthogonalEdgeStyle;rounded=0;orthogonalLoop=1;jettySize=auto;html=1;" parent="1" source="4eGiwKimZnD7dt1MbMoV-11" target="4eGiwKimZnD7dt1MbMoV-15" edge="1">
          <mxGeometry relative="1" as="geometry" />
        </mxCell>
        <mxCell id="4eGiwKimZnD7dt1MbMoV-11" value="if (client == session.check)&lt;br&gt;(user)" style="whiteSpace=wrap;html=1;rounded=0;" parent="1" vertex="1">
          <mxGeometry x="340" y="-3130" width="120" height="60" as="geometry" />
        </mxCell>
        <mxCell id="4eGiwKimZnD7dt1MbMoV-18" value="" style="edgeStyle=orthogonalEdgeStyle;rounded=0;orthogonalLoop=1;jettySize=auto;html=1;" parent="1" source="4eGiwKimZnD7dt1MbMoV-13" target="4eGiwKimZnD7dt1MbMoV-17" edge="1">
          <mxGeometry relative="1" as="geometry" />
        </mxCell>
        <mxCell id="4eGiwKimZnD7dt1MbMoV-13" value="Login Forms" style="whiteSpace=wrap;html=1;rounded=0;" parent="1" vertex="1">
          <mxGeometry x="640" y="-3130" width="120" height="60" as="geometry" />
        </mxCell>
        <mxCell id="4eGiwKimZnD7dt1MbMoV-15" value="DashBoard&lt;br&gt;" style="whiteSpace=wrap;html=1;rounded=0;" parent="1" vertex="1">
          <mxGeometry x="40" y="-3130" width="120" height="60" as="geometry" />
        </mxCell>
        <mxCell id="4eGiwKimZnD7dt1MbMoV-20" value="" style="edgeStyle=orthogonalEdgeStyle;rounded=0;orthogonalLoop=1;jettySize=auto;html=1;" parent="1" source="4eGiwKimZnD7dt1MbMoV-17" target="4eGiwKimZnD7dt1MbMoV-19" edge="1">
          <mxGeometry relative="1" as="geometry" />
        </mxCell>
        <mxCell id="4eGiwKimZnD7dt1MbMoV-22" value="" style="edgeStyle=orthogonalEdgeStyle;rounded=0;orthogonalLoop=1;jettySize=auto;html=1;" parent="1" source="4eGiwKimZnD7dt1MbMoV-17" target="4eGiwKimZnD7dt1MbMoV-21" edge="1">
          <mxGeometry relative="1" as="geometry" />
        </mxCell>
        <mxCell id="4eGiwKimZnD7dt1MbMoV-17" value="Data == db.query" style="whiteSpace=wrap;html=1;rounded=0;" parent="1" vertex="1">
          <mxGeometry x="640" y="-3000" width="120" height="60" as="geometry" />
        </mxCell>
        <mxCell id="4eGiwKimZnD7dt1MbMoV-19" value="back to login forms" style="whiteSpace=wrap;html=1;rounded=0;" parent="1" vertex="1">
          <mxGeometry x="1060" y="-3000" width="120" height="60" as="geometry" />
        </mxCell>
        <mxCell id="4eGiwKimZnD7dt1MbMoV-24" value="" style="edgeStyle=orthogonalEdgeStyle;rounded=0;orthogonalLoop=1;jettySize=auto;html=1;" parent="1" source="4eGiwKimZnD7dt1MbMoV-21" target="4eGiwKimZnD7dt1MbMoV-23" edge="1">
          <mxGeometry relative="1" as="geometry" />
        </mxCell>
        <mxCell id="4eGiwKimZnD7dt1MbMoV-21" value="create Cookie and Session" style="whiteSpace=wrap;html=1;rounded=0;" parent="1" vertex="1">
          <mxGeometry x="640" y="-2840" width="120" height="60" as="geometry" />
        </mxCell>
        <mxCell id="4eGiwKimZnD7dt1MbMoV-25" style="edgeStyle=orthogonalEdgeStyle;rounded=0;orthogonalLoop=1;jettySize=auto;html=1;entryX=0.5;entryY=1;entryDx=0;entryDy=0;" parent="1" source="4eGiwKimZnD7dt1MbMoV-23" target="4eGiwKimZnD7dt1MbMoV-15" edge="1">
          <mxGeometry relative="1" as="geometry" />
        </mxCell>
        <mxCell id="4eGiwKimZnD7dt1MbMoV-23" value="send to dashboard" style="whiteSpace=wrap;html=1;rounded=0;" parent="1" vertex="1">
          <mxGeometry x="640" y="-2680" width="120" height="60" as="geometry" />
        </mxCell>
      </root>
    </mxGraphModel>
  </diagram>
</mxfile>
